# xmcd
#
# Track frame offsets:
#	150
#	18572
#	26512
#	41522
#	61400
#	80020
#	129292
#	158705
#	174752
#	195712
#	216455
#	240260
#	260260
#	286130
#	302467
#	331802
#
# Disc length: 4679 seconds
#
# Revision: 12
# Processed by: cddbd v1.5.2PL0 Copyright (c) Steve Scherf et al.
# Submitted via: EasyCDDAExtractor 15.3.0.1
#
DISCID=cb124510
DTITLE=Ednita Nazario - Live
DYEAR=1994
DGENRE=Latin
TTITLE0=Metamorfosis
TTITLE1=No Me Dejes No
TTITLE2=Mañana
TTITLE3=El Dolor De Tu Presencia
TTITLE4=Tu, Sin Mi
TTITLE5=Medley De Exitos (Lo Mejor De Ti, La Prohibida, Mi Pequeño Amor, Conti
TTITLE5=go, Mi Amor, Cadenas De Fuego, A Que No Le Cuentas)
TTITLE6=Tres Deseos
TTITLE7=Mirame
TTITLE8=Mi Corazon Tiene Mente Propia
TTITLE9=Tanto Nos Amamos
TTITLE10=Lo Que Son Las Cosas
TTITLE11=Eres Libre
TTITLE12=Un Corazon Hecho Pedazos
TTITLE13=Alma De Gitana
TTITLE14=Aprendere
TTITLE15=Pensando Siempre En Ti
EXTD=
EXTT0=
EXTT1=
EXTT2=
EXTT3=
EXTT4=
EXTT5=
EXTT6=
EXTT7=
EXTT8=
EXTT9=
EXTT10=
EXTT11=
EXTT12=
EXTT13=
EXTT14=
EXTT15=
PLAYORDER=
